# xmcd
#
# Track frame offsets:
#	150
#	19883
#	36813
#	57851
#	72400
#	87660
#	101724
#	119628
#	138187
#	152355
#
# Disc length: 2232 seconds
#
# Revision: 1
# Processed by: cddbd v1.5.2PL0 Copyright (c) Steve Scherf et al.
# Submitted via: EZCDAudioConverter 8.5.0.1
#
DISCID=8708b60a
DTITLE=Will Kimbrough - I Like It Down Here
DYEAR=2019
DGENRE=Country
TTITLE0=Hey Trouble
TTITLE1=I Like It Down Here
TTITLE2=Alabama (For Michael Donald)
TTITLE3=Buddha Blues
TTITLE4=I'm Not Running Away
TTITLE5=When I Get To Memphis
TTITLE6=It's A Sin
TTITLE7=Salt Water and Sand
TTITLE8=Anything Helps
TTITLE9=Star
EXTD=
EXTT0=
EXTT1=
EXTT2=
EXTT3=
EXTT4=
EXTT5=
EXTT6=
EXTT7=
EXTT8=
EXTT9=
PLAYORDER=
